<?xml version="1.0" encoding="UTF-8" standalone="no"?>
<svg width="16px" height="16px" viewBox="0 0 16 16" version="1.1" xmlns="http://www.w3.org/2000/svg" xmlns:xlink="http://www.w3.org/1999/xlink">
    <!-- Generator: sketchtool 3.6.1 (26313) - http://www.bohemiancoding.com/sketch -->
    <title>icon-16 dark</title>
    <desc>Created with sketchtool.</desc>
    <defs></defs>
    <g id="Page-1" stroke="none" stroke-width="1" fill="none" fill-rule="evenodd">
        <g id="Dark-Icon-16">
            <g id="icon-16-dark">
                <rect id="bounds" x="0" y="0" width="16" height="16"></rect>
                <path d="M6.23333333,3.5 L5.50579834,3.5 C3.84881592,3.5 2.5,4.84174426 2.5,6.49686968 L2.5,9.50313032 C2.5,11.1526091 3.84574176,12.5 5.50579834,12.5 L10.4942017,12.5 C12.1511841,12.5 13.5,11.1582557 13.5,9.50313032 L13.5,6.49686968 C13.5,4.84739093 12.1542582,3.5 10.4942017,3.5 L9.5,3.5 L9.5,1.5 L6.23333333,3.5 Z M11,8.5 C11.2761424,8.5 11.5,8.27614237 11.5,8 C11.5,7.72385763 11.2761424,7.5 11,7.5 C10.7238576,7.5 10.5,7.72385763 10.5,8 C10.5,8.27614237 10.7238576,8.5 11,8.5 Z M8,8.5 C8.27614237,8.5 8.5,8.27614237 8.5,8 C8.5,7.72385763 8.27614237,7.5 8,7.5 C7.72385763,7.5 7.5,7.72385763 7.5,8 C7.5,8.27614237 7.72385763,8.5 8,8.5 Z M5,8.5 C5.27614237,8.5 5.5,8.27614237 5.5,8 C5.5,7.72385763 5.27614237,7.5 5,7.5 C4.72385763,7.5 4.5,7.72385763 4.5,8 C4.5,8.27614237 4.72385763,8.5 5,8.5 Z" id="Face" stroke-opacity="0.87" stroke="#000000" stroke-linecap="round" stroke-linejoin="round"></path>
            </g>
        </g>
    </g>
</svg>