<?xml version="1.0" encoding="UTF-8" standalone="no"?>
<svg width="48px" height="48px" viewBox="0 0 48 48" version="1.1" xmlns="http://www.w3.org/2000/svg" xmlns:xlink="http://www.w3.org/1999/xlink" xmlns:sketch="http://www.bohemiancoding.com/sketch/ns">
    <!-- Generator: Sketch 3.4 (15588) - http://www.bohemiancoding.com/sketch -->
    <title>product-manager</title>
    <desc>Created with Sketch.</desc>
    <defs></defs>
    <g id="Desktop-HD" stroke="none" stroke-width="1" fill="none" fill-rule="evenodd" sketch:type="MSPage">
        <g id="招募精英" sketch:type="MSArtboardGroup" transform="translate(-1135.000000, -1087.000000)">
            <g id="icon" sketch:type="MSLayerGroup" transform="translate(1135.000000, 1087.000000)">
                <rect id="Rectangle-1" sketch:type="MSShapeGroup" x="0" y="0" width="48" height="48"></rect>
                <g id="Group" transform="translate(2.000000, 4.000000)" stroke="#0099FF" stroke-width="2" sketch:type="MSShapeGroup" stroke-linecap="round" stroke-linejoin="round">
                    <path d="M44,40 L0,40 L0,0 L44,0 L44,40 Z" id="Stroke-570"></path>
                    <path d="M0,8 L44,8" id="Stroke-572"></path>
                    <path d="M10,0 L10,8" id="Stroke-573"></path>
                    <path d="M38,20 L6,20 L6,14 L38,14 L38,20 Z" id="Stroke-575"></path>
                    <path d="M12,34 L6,34 L6,26 L12,26 L12,34 Z" id="Stroke-576"></path>
                    <path d="M38,34 L18,34 L18,26 L38,26 L38,34 Z" id="Stroke-577"></path>
                </g>
            </g>
        </g>
    </g>
</svg>