<?xml version="1.0" encoding="UTF-8" standalone="no"?>
<svg width="48px" height="48px" viewBox="0 0 48 48" version="1.1" xmlns="http://www.w3.org/2000/svg" xmlns:xlink="http://www.w3.org/1999/xlink" xmlns:sketch="http://www.bohemiancoding.com/sketch/ns">
    <!-- Generator: Sketch 3.4 (15588) - http://www.bohemiancoding.com/sketch -->
    <title>ui-designer</title>
    <desc>Created with Sketch.</desc>
    <defs></defs>
    <g id="Desktop-HD" stroke="none" stroke-width="1" fill="none" fill-rule="evenodd" sketch:type="MSPage">
        <g id="招募精英" sketch:type="MSArtboardGroup" transform="translate(-843.000000, -1087.000000)">
            <g id="icon" sketch:type="MSLayerGroup" transform="translate(843.000000, 1087.000000)">
                <rect id="Rectangle-1670" sketch:type="MSShapeGroup" x="0" y="0" width="48" height="48"></rect>
                <g id="Group" transform="translate(2.000000, 2.000000)" stroke="#0099FF" stroke-width="2" sketch:type="MSShapeGroup" stroke-linecap="round" stroke-linejoin="round">
                    <path d="M44,44 L0,44 L0,0 L44,0 L44,44 Z" id="Stroke-598"></path>
                    <path d="M6,12 C6,8.686 8.686,6 12,6 C15.314,6 18,8.686 18,12 C18,15.314 15.314,18 12,18 C8.686,18 6,15.314 6,12 L6,12 Z" id="Stroke-599"></path>
                    <path d="M38,18 L26,18 L26,6 L38,6 L38,18 Z" id="Stroke-600"></path>
                    <path d="M38,38 L26,38 L32,28 L38,38 L38,38 Z" id="Stroke-601"></path>
                    <path d="M12,26 L12,38" id="Stroke-602"></path>
                    <path d="M6,32 L18,32" id="Stroke-603"></path>
                </g>
            </g>
        </g>
    </g>
</svg>