<?xml version="1.0" encoding="UTF-8" standalone="no"?>
<svg width="24px" height="24px" viewBox="0 0 24 24" version="1.1" xmlns="http://www.w3.org/2000/svg" xmlns:xlink="http://www.w3.org/1999/xlink" xmlns:sketch="http://www.bohemiancoding.com/sketch/ns">
    <!-- Generator: Sketch 3.4 (15588) - http://www.bohemiancoding.com/sketch -->
    <title>wand</title>
    <desc>Created with Sketch.</desc>
    <defs></defs>
    <g id="Desktop-HD" stroke="none" stroke-width="1" fill="none" fill-rule="evenodd" sketch:type="MSPage">
        <g id="icon-product-features-3" sketch:type="MSLayerGroup">
            <rect id="bounds" sketch:type="MSShapeGroup" x="0" y="0" width="24" height="24"></rect>
            <g id="shapes" transform="translate(1.000000, 1.000000)" stroke="#0099FF" stroke-width="2" sketch:type="MSShapeGroup" stroke-linecap="round" stroke-linejoin="round">
                <path d="M9,0.5 C7.62,1.88 5.38,1.88 4,0.5 C5.38,1.88 5.38,4.12 4,5.5 C5.38,4.12 7.62,4.12 9,5.5 C7.62,4.12 7.62,1.88 9,0.5 L9,0.5 L9,0.5 Z" id="Shape"></path>
                <path d="M21.5,0.5 C20.12,1.88 17.88,1.88 16.5,0.5 C17.88,1.88 17.88,4.12 16.5,5.5 C17.88,4.12 20.12,4.12 21.5,5.5 C20.12,4.12 20.12,1.88 21.5,0.5 L21.5,0.5 L21.5,0.5 Z" id="Shape-Copy"></path>
                <path d="M21.5,13 C20.12,14.38 17.88,14.38 16.5,13 C17.88,14.38 17.88,16.62 16.5,18 C17.88,16.62 20.12,16.62 21.5,18 C20.12,16.62 20.12,14.38 21.5,13 L21.5,13 L21.5,13 Z" id="Shape-Copy-2"></path>
                <path d="M0.0398448916,19.1733585 L13.1213203,6.09188309 L15.9497475,8.92031022 L2.86827202,22.0017857 L0.0398448916,19.1733585 L0.0398448916,19.1733585 Z" id="Rectangle-49"></path>
                <path d="M10.2928932,8.92031022 L13.1213203,11.7487373" id="Line"></path>
            </g>
        </g>
    </g>
</svg>