<?xml version="1.0" encoding="UTF-8" standalone="no"?>
<svg width="48px" height="48px" viewBox="0 0 48 48" version="1.1" xmlns="http://www.w3.org/2000/svg" xmlns:xlink="http://www.w3.org/1999/xlink">
    <!-- Generator: sketchtool 3.8.3 (29802) - http://www.bohemiancoding.com/sketch -->
    <title>BFCE95DE-97FC-435D-BB88-17B7952C332C</title>
    <desc>Created with sketchtool.</desc>
    <defs></defs>
    <g id="Page-1" stroke="none" stroke-width="1" fill="none" fill-rule="evenodd">
        <g id="首页" transform="translate(-258.000000, -1214.000000)">
            <g id="Group-4" transform="translate(258.000000, 1214.000000)">
                <rect id="Rectangle-51" x="0" y="0" width="48" height="48"></rect>
                <path d="M16.2112385,26.7250346 L18.3822855,26.7250346 L18.3822855,25.642409 L16.2112385,25.642409 L16.2112385,26.7250346 Z M40.8288018,26.7250346 L43.0079627,26.7250346 L43.0079627,25.642409 L40.8288018,25.642409 L40.8288018,26.7250346 Z M29.0636513,39.5855613 L30.1462769,39.5855613 L30.1462769,37.4145143 L29.0636513,37.4145143 L29.0636513,39.5855613 Z M29.0636513,14.9598841 L30.1462769,14.9598841 L30.1462769,12.7807232 L29.0636513,12.7807232 L29.0636513,14.9598841 Z M34.4234597,27.6175633 L34.4234597,22.7805216 L31.6090966,27.4552854 L31.5117299,27.6175633 L34.4234597,27.6175633 Z M34.4234597,31.983999 L34.4234597,29.4304397 L29.8356306,29.4304397 L29.8356306,27.4552854 L34.1209273,20.3753307 L36.6663727,20.3753307 L36.6663727,27.6175633 L37.9761875,27.6175633 L37.9761875,29.4304397 L36.6663727,29.4304397 L36.6663727,31.983999 L34.4234597,31.983999 Z M25.071614,26.5627567 C23.5925665,27.6036538 22.5852841,28.4961824 22.0474487,29.251934 C21.5107723,30.0088447 21.2441729,30.9187602 21.2441729,31.983999 L29.1529041,31.983999 L29.1529041,29.9752299 L24.0817185,29.9752299 L24.0817185,29.9590021 C24.4700265,29.4304397 25.1782537,28.8288522 26.2272647,28.1635127 C27.3574146,27.4390576 28.1212801,26.7980597 28.5432027,26.2184957 C28.9512158,25.642409 29.1529041,24.9121582 29.1529041,24.0335391 C29.1529041,22.9601865 28.7947335,22.0815673 28.0725967,21.4069548 C27.3493007,20.7242283 26.4138843,20.3834446 25.2675066,20.3834446 C24.0481038,20.3834446 23.0802318,20.7555248 22.3893915,21.4880937 C21.6892781,22.2276175 21.3566083,23.2279451 21.3983369,24.4879173 L23.6342951,24.4879173 C23.6169082,23.8051909 23.7478896,23.2766284 24.0399899,22.8790475 C24.3332493,22.4872622 24.7389442,22.2936878 25.2593927,22.2936878 C25.7485448,22.2936878 26.1380118,22.4478518 26.4312713,22.7642938 C26.7303263,23.0830541 26.8786947,23.4887489 26.8786947,24.0091974 C26.8786947,24.4809626 26.7477132,24.9040443 26.4787955,25.2842384 C26.19365,25.6679098 25.7404309,26.0979463 25.071614,26.5627567 L25.071614,26.5627567 Z M6.97530553,18.8951241 C6.69016001,18.5288396 6.68204611,18.5207257 6.21955399,18.7641426 C6.20332619,18.6435933 6.15580194,18.251808 5.78024442,18.251808 C5.55421444,18.2436941 5.42207383,18.2378985 5.20415774,18.2042837 C5.26906892,18.3016505 5.44757465,18.5531813 6.12218722,18.7409601 L6.21955399,18.7641426 C6.47108479,19.2034522 6.47108479,19.2034522 7.09817311,19.3425476 L7.26856495,19.1953383 C7.20249465,19.1721557 7.12946957,19.0991307 6.97530553,18.8951241 L6.97530553,18.8951241 Z M8.62590399,19.6334887 L8.11356936,19.3587754 L8.03243039,19.3819579 C7.72294318,19.4712108 7.6742598,19.4967116 7.81219604,19.9916593 C8.14718407,19.9603629 8.14718407,19.9603629 8.54476502,20.4471967 L8.93423208,20.0901852 L8.62590399,19.6334887 Z M13.5684264,33.8780144 C12.4950737,31.6014867 11.8784175,29.0745874 11.8784175,26.3981605 C11.8784175,25.6760237 11.9352148,24.9770694 12.0163538,24.2850699 C11.1713494,24.1714754 11.1539625,24.1540884 10.8943178,23.3345849 L10.6821973,23.1305783 C10.0968376,22.5765151 9.37238251,22.3018017 8.60040318,22.0085423 L8.08922767,22.0653395 C7.64180421,21.8045357 7.44822981,21.6921003 7.0483306,21.4463651 C6.4467431,22.0085423 6.25896434,21.879879 5.00826509,21.074285 C5.00826509,20.9676452 4.65009449,20.3915585 3.98475495,19.9916593 L3.86188736,19.7146277 C3.89550208,19.4491874 3.92563941,19.1802696 3.96736802,18.9113519 C4.22005796,18.6262064 4.25946831,18.5531813 4.35683508,18.2123976 C4.04850699,18.1787829 3.85377347,18.3016505 3.48748898,18.7166184 C3.33332493,18.6598211 3.18727479,18.5844778 3.04006552,18.5207257 C2.99138213,18.3097644 2.8291042,17.5771954 2.93574398,16.8052161 C3.20350258,16.6823485 3.20350258,16.6823485 3.74713368,15.700567 C4.73123346,15.7318634 4.73123346,15.7318634 5.31659317,16.1224896 C5.46380244,16.0506237 5.65737684,15.9439839 5.80574524,15.8628449 L5.95179539,16.3264962 C6.13841502,16.3496787 6.17782537,16.3496787 6.47108479,16.2430389 C6.34937634,16.886355 6.52788207,17.5215573 6.49658561,18.1625551 C6.73188862,17.9770946 7.04021671,17.7232456 7.26856495,17.5377851 L7.02514804,17.0242913 C7.11440091,16.7240771 7.17119819,16.5536853 7.44822981,16.0726471 C7.41461509,16.2036286 7.38100038,16.3264962 7.34159002,16.4563185 C7.6742598,16.2372433 8.06604511,16.1398765 8.39871488,15.9184831 C8.6757465,15.9184831 8.89366259,15.9602117 9.12085171,15.999622 C9.83719289,15.1638906 9.83719289,15.1638906 10.0574272,14.9506111 C11.2524883,14.4475495 11.2524883,14.4475495 14.3404057,13.6268867 C14.0552602,13.5689303 14.0552602,13.5689303 13.8199572,13.3092856 C13.9347108,13.1887363 14.080761,13.0345723 14.2036286,12.9117047 C14.1700139,12.9117047 14.1700139,12.9117047 12.8126748,13.1470077 C13.4954013,12.6184453 14.1306035,12.5778758 15.3256646,12.6184453 C15.6108101,12.6265592 15.6108101,12.6265592 16.731687,11.7085297 C16.4221998,11.7247575 16.332947,11.74794 15.9098652,11.9183319 C15.9597077,11.674915 15.9597077,11.674915 16.080257,11.431498 C15.9991181,11.3005166 15.9098652,11.12317 15.8368401,10.9840746 C15.9098652,10.7568855 15.9098652,10.7568855 16.0478014,10.5134686 C15.6977447,10.3430767 15.3894167,10.3581454 15.0150183,10.4392844 C14.5119567,9.61050775 14.5119567,9.61050775 14.2430389,9.5629835 C14.234925,9.70903364 14.234925,9.89565327 14.2268111,10.0335895 C14.0494645,10.0162026 13.8790727,9.9999748 13.7144765,9.99302003 C13.0653647,10.707043 12.2933854,11.3086305 11.6326824,12.0249717 C11.2918987,11.6436185 11.0983243,10.4636261 11.0728235,10.0660451 C11.27683,9.96867834 11.5434295,9.82958297 11.7474361,9.73337533 L12.2678846,9.47373063 C13.9103692,8.47224392 13.9103692,8.47224392 14.5119567,8.74927554 C14.651052,8.61829407 14.8295578,8.45601613 14.9756079,8.3435807 L14.8608542,8.03293436 C14.5281845,8.1870984 14.4134308,8.21259922 14.2268111,8.26244173 C14.0494645,7.90427114 14.1700139,7.52987275 14.1224896,7.16358826 L14.0726471,7.13808744 C13.4316492,8.30185209 13.4316492,8.30185209 12.7234219,8.26823737 C12.7153081,8.22071312 12.6909664,8.16391584 12.6735794,8.11407333 C12.3745244,8.09089076 12.3409097,8.08277687 12.0244677,7.95990929 C11.8784175,8.02482046 11.6917979,8.10595943 11.5515434,8.17202973 C11.5689303,8.13030112 11.593272,8.07466297 11.6187728,8.03293436 C11.52952,8.00859267 11.4066524,7.9854101 11.3162404,7.96802318 C11.3000126,7.86254252 11.2837848,7.7338793 11.2687161,7.62723951 C9.87892151,8.31807988 9.87080761,8.30185209 9.65752803,8.07466297 C10.308958,7.94368149 10.3738692,7.9274537 11.113393,7.5855109 C11.0009575,7.55421444 10.8943178,7.52059972 10.787678,7.48814414 L10.9105455,7.18792995 C10.7714502,7.13808744 10.6427869,7.09056319 10.5118055,7.05115283 C10.1536349,7.18792995 10.0411994,7.19604385 9.73055311,7.09056319 C9.829079,6.95262694 9.95194658,6.76600731 10.0493133,6.63502583 C9.85342069,6.58634245 9.74794003,6.55272773 9.17069422,6.68486834 C9.17880811,6.65125362 9.21010457,6.61763891 9.23560539,6.57822855 C8.54476502,7.01753811 7.89333501,7.51248583 7.28595187,8.05843518 L7.29174751,8.05843518 C7.12135568,8.21259922 6.96719163,8.35169459 6.8049137,8.48847171 C4.10530427,11.1150561 2.39906766,14.7245811 2.25301751,18.7409601 C4.52722691,20.3336021 5.60985259,22.9845282 5.62608038,23.0077107 C3.88622905,25.6841376 5.34093486,26.4735038 6.30069296,26.9846793 C6.36560413,27.2280963 6.43051531,27.4633993 6.50469951,27.6987023 C6.90228046,28.0904876 8.14718407,29.1789089 9.20199068,29.4883961 C9.53697871,31.1227668 10.4550082,32.4070808 11.8784175,33.341338 C12.4301625,33.5534585 13.0004536,33.7238503 13.5684264,33.8780144 L13.5684264,33.8780144 Z M11.8042333,7.3919365 C12.0082399,7.76401663 12.6503969,7.82313217 13.4397631,7.20415774 L13.5359708,7.12301877 C13.2102558,7.07317626 13.1708454,6.9676956 13.1465037,6.90278443 C13.0815925,6.89467053 13.0085675,6.91901222 12.8045609,7.00015119 C12.7234219,6.92828525 12.6260552,6.83787325 12.5449162,6.7741212 C12.5449162,6.57011465 12.5449162,6.57011465 12.4058208,6.45536097 L12.4139347,6.46347486 C12.3988661,6.61763891 12.2284742,6.69298224 12.2203603,6.84714628 C12.2122464,6.94451304 12.2597707,7.0418798 12.2342699,7.13808744 C12.2203603,7.19604385 12.1867456,7.24472723 12.1612448,7.30268363 C12.145017,7.30268363 11.9352148,7.33398009 11.8042333,7.3919365 L11.8042333,7.3919365 Z M12.9749528,6.31858385 L12.9923397,6.3823359 C13.4791735,6.39044979 13.4791735,6.39044979 13.5046743,6.39972282 C13.3980345,6.45536097 13.2693713,6.5307043 13.1708454,6.57822855 C13.3250094,6.61763891 13.3818067,6.80541766 13.5359708,6.83787325 C13.6333375,6.85526017 13.7144765,6.87148797 13.8037294,6.87844274 C13.8929822,6.7822351 13.9741212,6.67559531 14.0552602,6.57011465 L14.0969888,6.5307043 C13.9915081,6.59445634 13.8790727,6.6257528 13.7724329,6.69298224 C13.7724329,6.58634245 13.7307043,6.50520348 13.7480912,6.39972282 C13.764319,6.31858385 13.7898198,6.26178657 13.8535719,6.18644324 L13.8199572,6.18644324 C13.7225904,6.16441981 13.6252236,6.18644324 13.529016,6.16441981 C13.4629457,6.15630591 13.4536727,6.12269119 13.4455588,6.1145773 C13.1708454,6.21194406 13.0653647,6.26178657 12.9749528,6.31858385 L12.9749528,6.31858385 Z M14.7066902,6.84714628 L14.6904624,6.87148797 C14.6568477,6.95262694 14.5757087,7.09867708 14.6429381,7.52059972 L14.6429381,7.56232834 C14.7240771,7.35832178 14.7240771,7.13808744 14.7066902,6.84714628 L14.7066902,6.84714628 Z M14.7716014,6.48086179 L14.7878292,6.47158876 C14.7971022,6.39972282 14.7971022,6.28496913 14.7971022,6.21194406 L14.7797153,6.22005796 C14.6174373,6.29308303 14.5200706,6.35103944 14.5200706,6.35103944 L14.5119567,6.374222 C14.4551594,6.47158876 14.3995212,6.57822855 14.3241779,6.68486834 C14.3821343,6.68486834 14.5200706,6.70109613 14.7716014,6.48086179 L14.7716014,6.48086179 Z M14.2928814,5.8305909 C14.5838226,5.78074839 14.5838226,5.78074839 14.7159632,5.72511024 C14.7066902,5.78886229 14.7066902,5.82247701 14.7240771,5.87116039 C14.7403049,5.85377347 14.7797153,5.83754567 14.9257654,5.72511024 C14.9918357,5.66715384 14.9918357,5.66715384 15.0324052,5.4225778 L15.0011087,5.44807862 C14.4134308,5.78886229 14.4134308,5.78886229 14.2928814,5.8305909 L14.2928814,5.8305909 Z M15.3163916,7.15431523 C15.0011087,7.26095502 15.0011087,7.26095502 14.81333,7.41511906 C14.8295578,7.41511906 14.8295578,7.41511906 14.9756079,7.71649238 C15.2526395,7.5855109 15.7730881,7.76401663 15.8124984,8.05843518 C15.5122842,8.40733275 15.3569611,8.61829407 15.1541136,8.95907774 C14.9338793,8.9451682 14.732191,9.02630717 14.5281845,9.0483306 C14.7472597,9.06571753 14.9837218,9.09005922 15.2190248,9.09817311 L15.4960564,9.61050775 C16.016505,8.61829407 16.3491748,8.81302759 16.6911176,9.16308429 C16.7884843,9.06571753 16.9507623,8.91155348 16.9924909,8.65886355 L17.0006048,8.58699761 C16.7467557,8.66813658 16.7629835,8.29373819 16.7803704,8.09089076 C16.5612952,7.94368149 16.4952249,7.8370417 16.5033388,7.66664987 C16.4303137,7.66664987 16.332947,7.62723951 16.1451682,7.55421444 C15.9272521,7.45684768 15.854227,7.45684768 15.781202,7.48118937 C15.7394734,7.3919365 15.6838352,7.28529671 15.6421066,7.20415774 C15.5435807,7.26906892 15.4624417,7.31659317 15.2920499,7.44873378 C15.2526395,7.43134686 15.2607534,7.35832178 15.3418924,7.14620134 L15.3163916,7.15431523 Z M16.8441225,6.09719037 C16.251808,6.55272773 16.0559153,6.68486834 15.6583344,6.67559531 C15.7313595,6.68486834 15.7869976,6.70689177 15.9666625,6.80541766 C16.4952249,6.64313973 16.5531813,6.6257528 16.6911176,6.47158876 C16.7629835,6.48086179 16.822099,6.50520348 16.9252614,6.58634245 C17.0064004,6.48086179 17.1130402,6.34292554 17.1941792,6.23744488 C17.4874386,6.21194406 17.6334887,6.08328084 17.7725841,5.66019907 C17.8119945,5.55471841 17.6752173,5.44807862 17.6416026,5.44807862 C17.6079879,5.45619252 17.5859645,5.47357944 17.536122,5.52110369 C17.4236865,5.46430641 17.2022931,5.51298979 16.9924909,5.5628323 C16.7884843,5.61035656 16.6818445,5.62658435 16.6099786,5.62658435 C16.6343203,5.7645206 16.6656167,5.85377347 16.8441225,6.09719037 L16.8441225,6.09719037 Z M18.0415018,5.61035656 C17.8456092,5.92679854 17.6752173,6.13891899 17.3425476,6.48086179 C17.4793247,6.48897568 17.7725841,6.58634245 17.7725841,6.58634245 C17.9835454,6.74862039 18.1458234,7.05115283 18.3162152,7.24472723 C18.332443,7.37570871 18.3243291,7.47307547 18.2768048,7.67476376 C18.3498299,7.76401663 18.4553106,7.88688421 18.5364495,7.9854101 C18.4309689,8.22071312 18.332443,8.4386292 18.2350762,8.62640796 L18.187552,8.71566083 C18.1620512,9.00080635 18.3660577,9.2129268 18.3973542,9.47373063 C18.6430893,9.52936878 18.7717526,9.8145143 19.0568981,9.8064004 C19.2759733,9.79828651 19.2667003,9.61862165 19.2446768,9.44011591 C19.5935744,9.37520474 20.8048633,8.70754693 21.6000252,7.70026458 C21.471362,7.70837848 21.1050775,7.52059972 21.0969636,7.42323296 C21.1630339,7.35832178 21.2279451,7.34209399 21.6579816,7.35832178 C21.5270001,7.17981605 21.3983369,7.00942422 21.2673554,6.83787325 C21.3403805,6.82975935 21.4215195,6.84714628 21.6081391,6.91089832 C21.5780018,6.81353156 21.5362732,6.69298224 21.5107723,6.60372937 C20.9172987,6.09719037 20.7156104,5.47357944 20.7156104,5.46430641 L20.7237243,5.43996472 C20.422351,5.67526773 20.4061232,5.69960942 20.2600731,5.61035656 C20.187048,5.54544538 20.1140229,5.47357944 20.032884,5.40635001 C20.1453194,5.38316744 20.2519592,5.36693965 20.3493259,5.35071186 L19.9992692,5.171047 L19.9749276,5.17916089 L19.8775608,5.20466171 L19.8543782,5.2208895 C19.7732393,5.24407207 19.7315106,5.31709714 19.6422578,5.35071186 C19.6086431,5.36693965 19.5854605,5.35882575 19.5518458,5.35071186 C19.5124354,5.34143883 19.4707068,5.33332493 19.4382512,5.36693965 C19.3652262,5.4225778 19.3652262,5.52921759 19.3814539,5.66019907 C19.2585864,5.64397127 19.1774474,5.53733149 19.0406703,5.53733149 C18.8783923,5.55471841 18.7381378,5.54544538 18.7381378,5.54544538 C18.6987275,5.53733149 18.5758599,5.48980723 18.3243291,5.37505355 C18.3081013,5.48980723 18.2930326,5.63585738 18.2849187,5.74945193 C18.2269623,5.73322414 18.1956659,5.73322414 18.0415018,5.61035656 L18.0415018,5.61035656 Z M21.8851707,8.55338289 C22.0080383,8.63452186 22.1540884,8.74116165 22.276956,8.81302759 C23.0408215,8.69943304 23.0408215,8.54526899 23.0408215,8.40733275 L23.0408215,8.35749024 C22.8113141,8.32619378 22.6258536,8.32619378 22.3812776,8.37487716 C22.1703162,8.41544664 22.0254252,8.46413002 21.8851707,8.55338289 L21.8851707,8.55338289 Z M24.0643316,6.04966612 C24.7227164,6.79730377 24.7887867,6.87148797 25.1307295,7.47307547 C25.0322036,7.88688421 25.0322036,7.88688421 25.8528663,8.52788207 C25.8934358,8.50585864 25.9421192,8.46413002 25.9838478,8.4386292 C25.9189366,8.21259922 25.9189366,8.21259922 25.6732015,7.89615724 L25.7149301,7.93556759 L25.7879551,8.0016379 L25.8690941,8.08277687 L25.9421192,8.14768804 L26.0893285,8.29373819 L26.1542396,8.36560413 L26.2272647,8.4386292 L26.3721557,8.4386292 C26.5124102,8.05843518 26.5124102,8.05843518 25.578153,6.87148797 L25.8122968,6.88655663 C25.3092352,6.53649994 24.7887867,6.21194406 24.2439965,5.92679854 C24.1790853,5.96852715 24.1292428,6.01025576 24.0643316,6.04966612 L24.0643316,6.04966612 Z M25.8690941,6.93639914 L26.3002898,7.50437193 C26.4057704,7.52059972 26.5518206,7.52059972 26.6573012,7.49625803 C26.3976565,7.29456974 26.1380118,7.11490488 25.8690941,6.93639914 L25.8690941,6.93639914 Z M26.7384402,8.36560413 C26.7222124,8.33430767 26.6178909,8.04916215 26.3895426,7.68287766 L26.3721557,7.6515812 L26.3721557,7.67476376 C26.3976565,7.78140355 26.3976565,7.87877032 26.4138843,7.97729621 L26.4474991,8.00859267 C26.690916,8.24505481 26.7222124,8.3435807 26.7384402,8.36560413 L26.7384402,8.36560413 Z M27.1383394,7.89615724 C27.4628953,8.52208643 27.577649,8.75738944 27.6251732,8.92778128 C27.8048381,8.91155348 28.0007308,8.91155348 28.1850321,8.89416656 C27.8523624,8.54526899 27.5023057,8.21259922 27.1383394,7.89615724 L27.1383394,7.89615724 Z M26.5854353,9.08194532 C26.6329596,9.08194532 26.6828021,9.07383142 26.7303263,9.0564445 C26.6665743,8.99269245 26.5761623,8.89416656 26.4625677,8.78173113 C26.4474991,8.87793877 26.4532947,8.91966738 26.5854353,9.08194532 L26.5854353,9.08194532 Z M25.071614,9.4065012 C25.1863676,9.37520474 25.3092352,9.34159002 25.4297846,9.30913443 L25.4216707,9.30217966 L25.3648734,9.22799546 L25.3011213,9.14685649 C25.2199824,9.196699 25.1214565,9.27783797 25.0484314,9.34159002 C25.0577044,9.36709084 25.0635001,9.38331863 25.071614,9.4065012 L25.071614,9.4065012 Z M15.0567469,12.7656545 C15.0567469,12.7656545 15.5203981,13.1296208 15.6015371,13.3092856 L15.9597077,12.9117047 L15.0405191,12.7575406 L15.0567469,12.7656545 Z M47,26.3981605 C47,36.0826761 39.1202469,43.9601109 29.4380496,43.9601109 C22.9990929,43.9601109 17.3819579,40.4711352 14.3241779,35.3014237 C6.75623031,33.9035152 1,27.2593927 1,19.2927051 C1,10.309462 8.30946201,3 17.2927051,3 C22.2908656,3 26.7558271,5.28580068 29.7463777,8.84664231 C33.1785561,8.91155348 36.5098904,9.97679224 39.3242535,11.8963084 L42.0238629,9.196699 L44.2030238,17.5215573 L35.8700517,15.3505103 L37.7629079,13.4646088 C35.2928058,11.8789215 32.4065768,11.0003024 29.4380496,11.0003024 C20.9509134,11.0003024 14.0413506,17.9029104 14.0413506,26.3981605 C14.0413506,34.887615 20.9509134,41.7971778 29.4380496,41.7971778 C37.9344589,41.7971778 44.8359078,34.887615 44.8359078,26.3981605 L47,26.3981605 Z M8.8774348,12.561648 C8.69081517,12.4468943 8.54476502,12.2683886 8.32568981,12.2127504 C8.78818193,11.7398261 8.98407459,11.7085297 9.71664357,11.9681744 C9.87892151,12.5871488 10.0156986,12.9766158 10.4468943,13.1968502 L10.4213935,13.2049641 C9.86153458,13.4147663 9.46279451,14.0082399 8.75688547,13.9271009 C8.85309311,13.6755701 9.03971274,13.448381 9.04782663,13.1551216 L9.44772584,12.8943178 L9.29124354,12.8943178 C9.17880811,12.8862039 9.05594053,12.87809 8.97596069,12.9279325 C8.97596069,12.9279325 8.68154214,13.1713494 8.41378355,13.4240393 C8.31757591,13.5051783 8.21209525,13.6106589 7.92694973,13.7393222 C8.0080887,13.3417412 8.13095628,13.0009575 8.8774348,12.561648 L8.8774348,12.561648 Z" id="Fill-1" fill="#2196F3"></path>
            </g>
        </g>
    </g>
</svg>