<?xml version="1.0" encoding="UTF-8" standalone="no"?>
<svg width="48px" height="48px" viewBox="0 0 48 48" version="1.1" xmlns="http://www.w3.org/2000/svg" xmlns:xlink="http://www.w3.org/1999/xlink">
    <!-- Generator: sketchtool 3.8.3 (29802) - http://www.bohemiancoding.com/sketch -->
    <title>44F40E45-6D26-4B18-8224-47D4F8C0A9EC</title>
    <desc>Created with sketchtool.</desc>
    <defs></defs>
    <g id="Page-1" stroke="none" stroke-width="1" fill="none" fill-rule="evenodd">
        <g id="首页" transform="translate(-550.000000, -1214.000000)">
            <g id="Group-5" transform="translate(550.000000, 1214.000000)">
                <rect id="Rectangle-51" x="0" y="0" width="48" height="48"></rect>
                <path d="M38.4601882,7.82007018 C36.435907,5.28678968 31.1766813,1 24.3084449,1 C19.7170367,1 15.3469326,2.91883631 11.3205006,6.70573919 C11.3139917,6.71224813 11.3074827,6.71875707 11.3009738,6.72526602 C7.37477955,10.7634141 7.88768424,14.49434 8.53857851,19.2198325 C8.57763217,19.5114331 8.61798761,19.8056373 8.65834306,20.1050487 C8.7663915,20.9082522 8.06342569,22.1462531 7.38389207,23.3452004 C6.36198806,25.1442721 5.30623755,27.0071315 6.59631,27.8858388 C8.80023801,29.3881028 9.18426563,32.3457664 9.55527536,35.2083994 C9.64379698,35.887933 9.73492218,36.5908988 9.84817779,37.2743378 C10.0447479,38.4524564 11.0393143,39.0252434 12.8891558,39.0252434 C13.7105844,39.0252434 14.5892917,38.9237039 15.4393596,38.8260697 C16.1670594,38.7414535 16.8557055,38.6620444 17.4063621,38.6620444 C17.714886,38.6620444 17.9544151,38.6867784 18.1418726,38.7375481 C20.3640256,39.3389744 22.3049924,43.8327485 23.0066564,46.5235454 C23.0639351,46.7409441 23.2318658,46.914082 23.4492645,46.975266 C23.5065432,46.9908875 23.5651237,47 23.6224024,47 C23.7851259,47 23.9426424,46.9375141 24.0624069,46.8229568 L35.4530567,35.9530224 C35.6287981,35.7850917 35.6938875,35.5312429 35.6196856,35.2982228 C34.6134031,32.1517999 36.7040755,29.0821825 38.547408,26.3718587 C39.3532151,25.1885329 40.1134597,24.0715984 40.6328733,22.9702853 C43.0307678,17.8959135 41.3032944,11.3765565 38.4601882,7.82007018 Z M35.9008719,14.8666516 L35.328085,15.0202626 C35.321576,15.2597917 35.2903331,15.4993208 35.2343562,15.7362463 L35.7485627,16.0330541 C35.9321148,16.1398008 35.9959025,16.3754245 35.8891558,16.5602785 L35.2682027,17.6381594 C35.161456,17.8217116 34.9258323,17.8854992 34.7409783,17.7787525 L34.2267719,17.4832465 C34.0497286,17.6498755 33.8570639,17.7969776 33.6526831,17.9219493 L33.8075959,18.496038 C33.8622711,18.7017206 33.7399029,18.9139122 33.5342203,18.9685873 L32.3326695,19.290129 C32.1269869,19.346106 31.9147954,19.2237378 31.8601203,19.0180552 L31.7065092,18.4452683 C31.4669801,18.4387593 31.227451,18.4075164 30.9905255,18.3502377 L30.6937177,18.8644442 C30.5869711,19.0492982 30.3513474,19.1130858 30.1664934,19.0063391 L29.0899143,18.385386 C28.9037585,18.2786393 28.8412726,18.0430156 28.9480193,17.8581616 L29.2448271,17.3439552 C29.0768964,17.1669119 28.9297943,16.9742472 28.8035208,16.7698664 L28.2307338,16.9247793 C28.0250512,16.9794544 27.8141615,16.8570863 27.7581846,16.6514037 L27.435341,15.4498528 C27.3806659,15.2441703 27.503034,15.0332805 27.7087166,14.9773036 L28.2828054,14.8236926 C28.2880125,14.5841635 28.3192554,14.3446344 28.3765341,14.1077089 L27.8623277,13.8109011 C27.6774737,13.7041544 27.613686,13.4685307 27.7204327,13.2836767 L28.3413858,12.2070976 C28.4481325,12.0222436 28.685058,11.958456 28.869912,12.0652026 L29.3828167,12.3620104 C29.5611617,12.1940797 29.7525246,12.0469776 29.9569054,11.9207041 L29.8019926,11.3492189 C29.7473175,11.1422345 29.8696856,10.9313448 30.0753682,10.8753679 L31.276919,10.5525243 C31.4826016,10.4978492 31.6934913,10.6202173 31.7494683,10.8258999 L31.9030793,11.3999887 C32.1426084,11.4051958 32.3821375,11.4364388 32.619063,11.4937175 L32.9158708,10.979511 C33.0226174,10.794657 33.2582412,10.7308694 33.4430951,10.837616 L34.5209761,11.4585692 C34.7045282,11.5653158 34.7683159,11.8022413 34.6615692,11.9857935 L34.3660632,12.5 C34.5326922,12.6770432 34.6797943,12.8697079 34.8060678,13.072787 L35.3788547,12.9191759 C35.5845373,12.8645008 35.7967288,12.9868689 35.851404,13.1925515 L36.1742475,14.3928005 C36.2289226,14.5997849 36.1078563,14.8106747 35.9008719,14.8666516 Z M31.8050546,13.6765565 C31.1177103,13.6765565 30.559243,14.233722 30.559243,14.9223681 C30.559243,15.6097125 31.1177103,16.166878 31.8050546,16.166878 C32.492399,16.166878 33.0508663,15.6097125 33.0508663,14.9223681 C33.0508663,14.233722 32.492399,13.6765565 31.8050546,13.6765565 Z M29.5247116,21.4745302 L29.0925178,21.5903894 C29.0873107,21.771338 29.0638785,21.9522866 29.0222213,22.1319334 L29.4101542,22.3545393 C29.5494456,22.4352502 29.59631,22.6135952 29.5169009,22.7528866 L29.0469552,23.5665044 C28.9675461,23.7057958 28.7892011,23.753962 28.6499097,23.6732511 L28.2619767,23.4493434 C28.1278925,23.5756169 27.983394,23.686269 27.8297829,23.7812995 L27.9456421,24.2134933 C27.9872994,24.3684062 27.8948724,24.5285261 27.7399595,24.5701834 L26.8326129,24.8136178 C26.6777001,24.8552751 26.5175801,24.7628481 26.4759229,24.6079353 L26.3600637,24.1744397 C26.1791151,24.1705343 25.9981665,24.1471021 25.8185196,24.1041431 L25.5959138,24.4920761 C25.5152029,24.6313674 25.3368579,24.6795336 25.1975665,24.5988227 L24.3852505,24.1301789 C24.2459591,24.049468 24.1977929,23.8711229 24.277202,23.7318316 L24.5011096,23.3438986 C24.3748362,23.2098144 24.2641841,23.0653158 24.1691536,22.9117048 L23.7369598,23.027564 C23.5807451,23.0692212 23.4219269,22.9767942 23.3802697,22.8218814 L23.1368352,21.9145348 C23.095178,21.7596219 23.187605,21.5995019 23.3425178,21.5578447 L23.7747116,21.4419855 C23.7799188,21.2623387 23.803351,21.0800883 23.84631,20.9017433 L23.458377,20.6778356 C23.3190856,20.5971247 23.2709195,20.4187797 23.3516304,20.2794883 L23.8202742,19.4671723 C23.9009851,19.3278809 24.0793302,19.2797147 24.2186215,19.3604256 L24.6065545,19.5843333 C24.7393369,19.4580598 24.8851373,19.346106 25.0387483,19.2523772 L24.9228891,18.8188816 C24.8812319,18.6639688 24.9736589,18.5038488 25.1285717,18.4621915 L26.0346165,18.2187571 C26.1908312,18.1784016 26.3509512,18.2695268 26.3913066,18.4244397 L26.5084676,18.8579353 C26.6894162,18.8631424 26.8703648,18.8865746 27.0487098,18.9282318 L27.2726174,18.5402988 C27.3533283,18.4010075 27.5316734,18.3541431 27.669663,18.4335522 L28.4832808,18.9021961 C28.6225722,18.982907 28.6707383,19.161252 28.5900275,19.3005434 L28.3661198,19.6884763 C28.4923933,19.8225606 28.6030453,19.9670591 28.6980759,20.1219719 L29.1302697,20.004811 C29.2864843,19.9631537 29.4453025,20.0555807 29.4882616,20.2117953 L29.731696,21.1178402 C29.7733532,21.272753 29.6809263,21.432873 29.5247116,21.4745302 Z M26.4338751,20.5766867 C25.9144615,20.5766867 25.4939838,20.9971644 25.4939838,21.516578 C25.4939838,22.0359916 25.9144615,22.4564693 26.4338751,22.4564693 C26.9532887,22.4564693 27.3737664,22.0359916 27.3737664,21.516578 C27.3737664,20.9971644 26.9532887,20.5766867 26.4338751,20.5766867 Z M22.713754,18.5350917 L22.2893709,17.862067 C21.9756399,17.9492868 21.6553999,18.003962 21.3351599,18.0247906 L21.1581167,18.8019583 C21.0956308,19.0792393 20.8183498,19.2549808 20.5397671,19.1911931 L18.9125314,18.8214852 C18.6352505,18.7589993 18.459509,18.4817184 18.5232966,18.2031356 L18.6990381,17.4259679 C18.4204553,17.2684514 18.1548905,17.0822957 17.9088525,16.8675006 L17.2358278,17.2918836 C16.9936951,17.4441929 16.6734551,17.3712927 16.5224477,17.1291601 L15.6333261,15.7180213 C15.4810168,15.4771904 15.553917,15.1569504 15.7947479,15.0046412 L16.4677725,14.5802581 C16.3805527,14.2652253 16.3258776,13.9462871 16.305049,13.6260471 L15.529183,13.4503056 C15.2506002,13.386518 15.0748588,13.109237 15.1386464,12.8306543 L15.5083544,11.2047204 C15.5708402,10.9261376 15.849423,10.7503962 16.1267039,10.8141838 L16.9038717,10.9899253 C17.0600863,10.7100408 17.2475439,10.4457777 17.462339,10.1997396 L17.0392577,9.52671496 C16.8869484,9.2845823 16.9585468,8.9656441 17.2006795,8.81333484 L18.6118183,7.92421327 C18.8539509,7.77190401 19.1728891,7.84350238 19.3251984,8.08563505 L19.7495815,8.75865972 C20.0633125,8.67143989 20.3835525,8.61676477 20.7037925,8.59593616 L20.8808357,7.82007018 C20.9433215,7.54148743 21.2206025,7.36574598 21.4991853,7.42953362 L23.1251191,7.79924157 C23.4037019,7.86172742 23.5794433,8.13900838 23.5156557,8.41759113 L23.3399143,9.19475889 C23.6197988,9.35097351 23.8840619,9.53843106 24.1300999,9.75322617 L24.8031246,9.33014489 C25.0452573,9.17783564 25.3641954,9.249434 25.5178065,9.49156667 L26.4056263,10.9027055 C26.5579355,11.1448381 26.4863372,11.4637763 26.2442045,11.6160856 L25.5711798,12.0404686 C25.6583997,12.3541997 25.7130748,12.6744397 25.7339034,12.9946796 L26.5097694,13.1717229 C26.7883521,13.2342087 26.9640936,13.5114897 26.9003059,13.7900724 L26.530598,15.4160063 C26.4681121,15.6958909 26.1908312,15.8703305 25.9122484,15.8065429 L25.1350807,15.6308014 C24.978866,15.910686 24.7914085,16.1749491 24.5766134,16.4209871 L24.9996947,17.0940118 C25.1520039,17.3361444 25.0804055,17.6563844 24.8382729,17.8086937 L23.4271341,18.6978153 C23.1850014,18.8501245 22.8660632,18.7759226 22.713754,18.5350917 Z M21.019346,11.640429 C20.0976797,11.640429 19.3491513,12.3889574 19.3491513,13.3106237 C19.3491513,14.23229 20.0976797,14.9795166 21.019346,14.9795166 C21.9423141,14.9795166 22.6895407,14.23229 22.6895407,13.3106237 C22.6895407,12.3889574 21.9423141,11.640429 21.019346,11.640429 Z" id="Combined-Shape" fill="#2196F3"></path>
            </g>
        </g>
    </g>
</svg>