<?xml version="1.0" encoding="UTF-8" standalone="no"?>
<svg width="48px" height="48px" viewBox="0 0 48 48" version="1.1" xmlns="http://www.w3.org/2000/svg" xmlns:xlink="http://www.w3.org/1999/xlink">
    <!-- Generator: sketchtool 3.8.3 (29802) - http://www.bohemiancoding.com/sketch -->
    <title>E63094D7-C4F8-4EB2-B91A-316D74715949</title>
    <desc>Created with sketchtool.</desc>
    <defs></defs>
    <g id="Page-1" stroke="none" stroke-width="1" fill="none" fill-rule="evenodd">
        <g id="首页" transform="translate(-1135.000000, -1214.000000)">
            <g id="Group-2" transform="translate(1135.000000, 1214.000000)">
                <rect id="Rectangle-51" x="0" y="0" width="48" height="48"></rect>
                <path d="M47.9274401,10.7607276 L42.3297968,5.87906204 L36.7321536,1 L31.137114,5.87906204 L25.5394707,10.7607276 L31.6643338,10.7607276 C29.6010165,23.4270226 17.8967351,33.2814783 4.57824956,31.1856165 C3.99244969,31.0944921 3.75552619,31.8833692 4.33091184,32.083843 C20.9064446,37.8533208 40.0022187,28.3737771 42.7658923,10.7607276 L47.9274401,10.7607276 Z M35.5127786,27.1270648 C33.7918288,28.7165351 31.8664999,30.1042299 29.7823541,31.2628119 L29.7823541,47 L35.5127786,47 L35.5127786,27.1270648 Z M21.1889304,46.9996095 L26.9167513,46.9996095 L26.9167513,32.6657375 C25.0968664,33.4428987 23.1793481,34.0560359 21.1889304,34.4817171 L21.1889304,46.9996095 Z M38.3782513,46.9996095 L44.1060722,46.9996095 L44.1060722,12.1926829 L43.9615749,12.1926829 C43.0633485,16.6356495 41.1106822,20.6555384 38.3782513,24.0518758 L38.3782513,46.9996095 Z M9.73042452,34.8648302 C7.78296539,34.5797409 5.86674892,34.1241188 4,33.4823425 L4,47 L9.73042452,47 L9.73042452,34.8648302 Z M12.592903,46.9996095 L18.3233276,46.9996095 L18.3233276,34.9633748 C17.0202483,35.1208898 15.693737,35.2055054 14.3437938,35.2055054 C13.7592957,35.2055054 13.1760994,35.1820734 12.592903,35.1508307 L12.592903,46.9996095 Z" id="Combined-Shape" fill="#2196F3"></path>
            </g>
        </g>
    </g>
</svg>