<?xml version="1.0" encoding="UTF-8" standalone="no"?>
<svg width="48px" height="48px" viewBox="0 0 48 48" version="1.1" xmlns="http://www.w3.org/2000/svg" xmlns:xlink="http://www.w3.org/1999/xlink">
    <!-- Generator: sketchtool 3.8.3 (29802) - http://www.bohemiancoding.com/sketch -->
    <title>E82F8B01-3F7F-4A3E-9E8F-6D09D13EAAC2</title>
    <desc>Created with sketchtool.</desc>
    <defs></defs>
    <g id="Page-1" stroke="none" stroke-width="1" fill="none" fill-rule="evenodd">
        <g id="首页" transform="translate(-843.000000, -1214.000000)">
            <g id="Group-3" transform="translate(843.000000, 1214.000000)">
                <rect id="Rectangle-51" x="0" y="0" width="48" height="48"></rect>
                <path d="M15.6303874,36.6940035 C15.6303874,36.2553131 15.9844639,35.8986332 16.4257577,35.8986332 C16.864448,35.8986332 17.221128,36.2553131 17.221128,36.6940035 C17.221128,37.1326938 16.864448,37.4893737 16.4257577,37.4893737 C15.9844639,37.4893737 15.6303874,37.1326938 15.6303874,36.6940035 L15.6303874,36.6940035 Z M15.6303874,30.410448 C15.6303874,29.9691541 15.9844639,29.6150777 16.4257577,29.6150777 C16.864448,29.6150777 17.221128,29.9691541 17.221128,30.410448 C17.221128,30.8491383 16.864448,31.2058183 16.4257577,31.2058183 C15.9844639,31.2058183 15.6303874,30.8491383 15.6303874,30.410448 L15.6303874,30.410448 Z M15.6303874,24.2700852 C15.6303874,23.8274896 15.9844639,23.4734131 16.4257577,23.4734131 C16.864448,23.4734131 17.221128,23.8274896 17.221128,24.2700852 C17.221128,24.7087755 16.864448,25.0654555 16.4257577,25.0654555 C15.9844639,25.0654555 15.6303874,24.7087755 15.6303874,24.2700852 L15.6303874,24.2700852 Z M15.6303874,18.2794238 C15.6303874,17.8407335 15.9844639,17.4840535 16.4257577,17.4840535 C16.864448,17.4840535 17.221128,17.8407335 17.221128,18.2794238 C17.221128,18.7181142 16.864448,19.0747941 16.4257577,19.0747941 C15.9844639,19.0747941 15.6303874,18.7181142 15.6303874,18.2794238 L15.6303874,18.2794238 Z M47,23.7650055 C47,28.5619606 43.0960466,32.4646122 38.2964881,32.4646122 L22.5882503,32.4646122 C22.7015027,32.1964513 22.7691938,31.9022554 22.7691938,31.589835 L22.7691938,30.6278405 L38.2964881,30.6278405 C42.0819821,30.6278405 45.1645301,27.5504995 45.1645301,23.762402 C45.1645301,19.9769081 42.0845856,16.899567 38.2964881,16.899567 C37.9398081,16.899567 37.5636019,16.9334126 37.1470413,17.0037072 L36.5612531,17.1026403 L36.2319099,16.6066729 C34.952288,14.6865891 32.8135099,13.5371424 30.5146164,13.5371424 C30.2855081,13.5371424 30.0485893,13.5514616 29.8181792,13.5735914 L29.0449387,13.6529983 L28.839262,12.9005858 C28.0308742,9.91957438 25.3089113,7.83807341 22.2237598,7.83807341 C18.7689108,7.83807341 15.910264,10.4051278 15.4364264,13.7311034 L13.5788267,13.7311034 C14.0643801,9.38976144 17.7535444,6 22.2237598,6 C25.8855873,6 29.1386649,8.30930752 30.3844412,11.7029742 C33.1597759,11.6665252 35.7476583,12.9318278 37.4191075,15.1109602 C37.7237174,15.0784164 38.014008,15.0627954 38.2964881,15.0627954 C43.0960466,15.0627954 47,18.965447 47,23.7650055 L47,23.7650055 Z M2.95913632,19.9118205 L18.3679712,19.9118205 L18.3679712,16.7498656 L2.95913632,16.7498656 L2.95913632,19.9118205 Z M2.95913632,26.0196395 L18.3679712,26.0196395 L18.3679712,22.8576846 L2.95913632,22.8576846 L2.95913632,26.0196395 Z M2.95913632,32.0480516 L18.3679712,32.0480516 L18.3679712,28.8860967 L2.95913632,28.8860967 L2.95913632,32.0480516 Z M2.95913632,38.3185896 L18.3679712,38.3185896 L18.3679712,35.1527294 L2.95913632,35.1527294 L2.95913632,38.3185896 Z M20.1253361,15.1448057 L1.60401279,15.1448057 C1.2694626,15.1448057 1,15.4155701 1,15.7475168 L1,21.2226844 C1,21.3398421 1.04425956,21.445284 1.10414014,21.5377084 C1.04425956,21.6314345 1,21.7355746 1,21.8566375 L1,27.3305034 C1,27.4476611 1.04425956,27.553103 1.10414014,27.6455274 C1.04425956,27.741857 1,27.8459971 1,27.9644565 L1,33.4383224 C1,33.5424626 1.03384554,33.6335852 1.07680335,33.7181991 C1.03384554,33.8028129 1,33.8939355 1,33.9954722 L1,39.4706398 C1,39.8038883 1.2694626,40.0733509 1.60401279,40.0733509 L20.1279396,40.0733509 C20.4598862,40.0733509 20.7293488,39.8038883 20.7293488,39.4706398 L20.7293488,33.9954722 C20.7293488,33.8939355 20.6994086,33.8028129 20.6525455,33.7181991 C20.6994086,33.6335852 20.7293488,33.5424626 20.7293488,33.4383224 L20.7293488,27.9644565 C20.7293488,27.8433936 20.6850893,27.741857 20.6278122,27.6455274 C20.6850893,27.553103 20.7293488,27.4476611 20.7293488,27.3305034 L20.7293488,21.8566375 C20.7293488,21.7355746 20.6850893,21.6314345 20.6278122,21.5377084 C20.6850893,21.445284 20.7293488,21.3398421 20.7293488,21.2226844 L20.7293488,15.7475168 C20.7293488,15.4155701 20.4598862,15.1448057 20.1253361,15.1448057 L20.1253361,15.1448057 Z" id="Fill-13" fill="#2196F3"></path>
            </g>
        </g>
    </g>
</svg>