<?xml version="1.0" encoding="UTF-8" standalone="no"?>
<svg width="200px" height="60px" viewBox="0 0 200 60" version="1.1" xmlns="http://www.w3.org/2000/svg" xmlns:xlink="http://www.w3.org/1999/xlink" xmlns:sketch="http://www.bohemiancoding.com/sketch/ns">
    <!-- Generator: Sketch 3.4.1 (15681) - http://www.bohemiancoding.com/sketch -->
    <title>logo-&amp;-product-wordmark-white</title>
    <desc>Created with Sketch.</desc>
    <defs></defs>
    <g id="Page-1" stroke="none" stroke-width="1" fill="none" fill-rule="evenodd" sketch:type="MSPage">
        <g id="Logo-&amp;-Product-Wordmark" sketch:type="MSArtboardGroup" transform="translate(-100.000000, -180.000000)">
            <g id="logo-&amp;-product-wordmark-white" sketch:type="MSLayerGroup" transform="translate(100.000000, 180.000000)">
                <rect id="Rectangle-8" sketch:type="MSShapeGroup" x="0" y="0" width="200" height="60"></rect>
                <g id="Logo-/-Default-Copy" transform="translate(1.000000, 8.000000)" stroke="#FFFFFF" stroke-width="2" sketch:type="MSShapeGroup" stroke-linecap="round" stroke-linejoin="round">
                    <path d="M13.6363636,5.42857143 L12.0013189,5.42857143 C5.37380987,5.42857143 0,10.8016863 0,17.4297595 L0,25.9988119 C0,32.621491 5.37317351,38 12.0013189,38 L27.9986811,38 C34.6261901,38 40,32.6268851 40,25.9988119 L40,17.4297595 C40,10.8070804 34.6268265,5.42857143 27.9986811,5.42857143 L25.4545455,5.42857143 L25.4545455,0 L13.6363636,5.42857143 Z M10,24.4285714 C11.5062311,24.4285714 12.7272727,23.2133443 12.7272727,21.7142857 C12.7272727,20.2152271 11.5062311,19 10,19 C8.49376886,19 7.27272727,20.2152271 7.27272727,21.7142857 C7.27272727,23.2133443 8.49376886,24.4285714 10,24.4285714 Z M20,24.4285714 C21.5062311,24.4285714 22.7272727,23.2133443 22.7272727,21.7142857 C22.7272727,20.2152271 21.5062311,19 20,19 C18.4937689,19 17.2727273,20.2152271 17.2727273,21.7142857 C17.2727273,23.2133443 18.4937689,24.4285714 20,24.4285714 Z M30,24.4285714 C31.5062311,24.4285714 32.7272727,23.2133443 32.7272727,21.7142857 C32.7272727,20.2152271 31.5062311,19 30,19 C28.4937689,19 27.2727273,20.2152271 27.2727273,21.7142857 C27.2727273,23.2133443 28.4937689,24.4285714 30,24.4285714 Z" id="Face"></path>
                </g>
                <path d="M66.78,22.08 L61.6,22.08 L61.6,37.3 L63,37.3 L63,35.86 L66.78,35.86 L66.78,22.08 Z M63,34.56 L63,29.48 L65.4,29.48 L65.4,34.56 L63,34.56 Z M63,28.16 L63,23.38 L65.4,23.38 L65.4,28.16 L63,28.16 Z M76.92,38.82 C77.54,38.82 78,38.66 78.3,38.36 C78.62,37.98 78.84,36.96 78.96,35.28 L77.7,34.88 C77.64,36.16 77.52,36.94 77.34,37.22 C77.22,37.42 76.98,37.52 76.66,37.52 L75.88,37.52 C75.48,37.52 75.28,37.3 75.28,36.9 L75.28,32.22 L78.54,32.22 L78.54,30.82 L67.7,30.82 L67.7,32.22 L70.62,32.22 L70.62,32.48 C70.58,33.88 70.28,35 69.7,35.86 C69.08,36.7 68,37.36 66.46,37.86 L67.22,39.08 C68.86,38.52 70.06,37.74 70.78,36.76 C71.52,35.68 71.92,34.26 71.96,32.48 L71.96,32.22 L73.9,32.22 L73.9,37.18 C73.9,38.26 74.42,38.82 75.48,38.82 L76.92,38.82 Z M78.04,22.12 L72.3,22.66 C72.14,22.02 72.02,21.3 71.9,20.5 L70.48,20.66 C70.6,21.42 70.76,22.14 70.92,22.78 L67.66,23.08 L67.86,24.36 L71.24,24.04 C71.52,25 71.82,25.78 72.14,26.38 C72.22,26.54 72.34,26.72 72.46,26.92 C71.16,27.54 69.66,28.06 67.98,28.46 L68.54,29.7 C70.3,29.26 71.88,28.7 73.26,28 C73.58,28.36 73.92,28.68 74.3,28.96 C75.08,29.52 75.82,29.82 76.54,29.82 C77.42,29.82 78.18,28.9 78.84,27.08 L77.78,26.38 C77.34,27.74 76.9,28.44 76.42,28.48 C75.98,28.48 75.44,28.24 74.82,27.76 C74.68,27.64 74.54,27.52 74.42,27.36 C75.5,26.68 76.44,25.92 77.24,25.04 L76.2,24.26 C75.48,25.02 74.62,25.7 73.62,26.3 C73.46,26.06 73.32,25.82 73.2,25.54 C72.98,25.1 72.78,24.56 72.62,23.92 L78.24,23.38 L78.04,22.12 Z M89.92,20.6 C88.16,22.52 85.5,23.8 81.94,24.48 L82.78,25.8 C84.92,25.32 86.76,24.62 88.32,23.7 L94.16,23.7 C93.04,25.34 91.42,26.6 89.34,27.44 C88.7,26.64 88.02,25.92 87.3,25.24 L86.04,25.84 C86.72,26.46 87.38,27.16 88,27.92 C86.56,28.34 84.96,28.6 83.16,28.72 L83.78,30.02 C89.62,29.56 93.64,27.4 95.8,23.56 L95.8,22.42 L90.06,22.42 C90.46,22.06 90.84,21.68 91.2,21.28 L89.92,20.6 Z M89.16,33.1 L87.88,33.7 C88.62,34.42 89.32,35.24 90,36.14 C87.74,36.9 85.04,37.28 81.92,37.3 L82.5,38.68 C90.26,38.5 95.54,36.06 98.38,31.34 L98.38,30.2 L92.9,30.2 C93.46,29.78 93.96,29.32 94.44,28.84 L93.2,28.16 C91.12,30.36 87.9,31.7 83.54,32.14 L84.4,33.42 C86.82,33 88.9,32.36 90.66,31.52 L96.58,31.52 C95.3,33.28 93.56,34.66 91.34,35.62 C90.66,34.72 89.92,33.88 89.16,33.1 L89.16,33.1 Z M110,28.34 C109.6,28.34 109.26,28.48 108.98,28.76 C108.68,29.04 108.54,29.4 108.54,29.8 C108.54,30.2 108.68,30.54 108.98,30.82 C109.26,31.1 109.6,31.24 110,31.24 C110.4,31.24 110.74,31.1 111.02,30.82 C111.3,30.54 111.46,30.2 111.46,29.8 C111.46,29.4 111.3,29.04 111.02,28.76 C110.74,28.48 110.4,28.34 110,28.34 L110,28.34 Z M138,22.94 L131.64,22.94 L131.64,38.06 L132.7,38.06 L132.7,36.64 L136.92,36.64 L136.92,38 L138,38 L138,22.94 Z M132.7,35.62 L132.7,23.96 L136.92,23.96 L136.92,35.62 L132.7,35.62 Z M123.78,24.56 L126.1,24.56 C126.08,26.16 125.98,27.62 125.82,28.94 L121.26,28.94 L121.26,29.96 L125.66,29.96 C125.54,30.56 125.42,31.14 125.28,31.7 C124.56,34.12 123.12,36.1 120.96,37.64 L121.66,38.52 C123.82,36.98 125.32,35.04 126.14,32.68 C127.14,33.74 128.38,35.28 129.86,37.28 L130.5,36.32 C129.12,34.6 127.76,33.06 126.44,31.7 C126.56,31.16 126.68,30.58 126.78,29.96 L130.46,29.96 L130.46,28.94 L126.92,28.94 C127.08,27.62 127.18,26.16 127.2,24.56 L130.28,24.56 L130.28,23.52 L124.22,23.52 C124.54,22.68 124.82,21.78 125.08,20.86 L124.02,20.62 C123.38,23.04 122.4,25.22 121.08,27.14 L122.02,27.72 C122.68,26.76 123.26,25.7 123.78,24.56 L123.78,24.56 Z M146.6,22.22 L141.78,22.22 L141.78,37.26 L142.82,37.26 L142.82,35.72 L146.6,35.72 L146.6,22.22 Z M142.82,34.7 L142.82,29.34 L145.58,29.34 L145.58,34.7 L142.82,34.7 Z M142.82,28.3 L142.82,23.24 L145.58,23.24 L145.58,28.3 L142.82,28.3 Z M156.86,38.76 C157.46,38.76 157.9,38.6 158.18,38.32 C158.5,37.92 158.72,36.9 158.84,35.26 L157.86,34.96 C157.78,36.32 157.66,37.16 157.46,37.46 C157.32,37.68 157.06,37.8 156.68,37.8 L155.76,37.8 C155.28,37.8 155.06,37.56 155.06,37.08 L155.06,32.04 L158.46,32.04 L158.46,31 L147.7,31 L147.7,32.04 L150.74,32.04 L150.74,32.48 C150.7,33.92 150.4,35.1 149.8,36.02 C149.14,36.9 148.02,37.6 146.46,38.12 L147.06,39.02 C148.7,38.46 149.88,37.7 150.62,36.72 C151.34,35.66 151.72,34.24 151.76,32.48 L151.76,32.04 L154.04,32.04 L154.04,37.28 C154.04,38.26 154.5,38.76 155.44,38.76 L156.86,38.76 Z M158,22.28 L152.12,22.8 C151.96,22.12 151.8,21.36 151.68,20.52 L150.62,20.64 C150.74,21.44 150.9,22.2 151.06,22.9 L147.68,23.2 L147.84,24.18 L151.3,23.88 C151.58,24.88 151.88,25.7 152.22,26.3 C152.34,26.54 152.5,26.78 152.66,27.02 C151.32,27.7 149.76,28.24 147.98,28.68 L148.42,29.64 C150.26,29.18 151.88,28.58 153.3,27.86 C153.62,28.24 153.96,28.58 154.36,28.86 C155.12,29.42 155.86,29.72 156.56,29.72 C157.36,29.72 158.08,28.8 158.72,27 L157.88,26.46 C157.42,27.94 156.94,28.68 156.44,28.72 C156,28.72 155.44,28.46 154.76,27.98 C154.54,27.8 154.34,27.6 154.16,27.38 C155.32,26.68 156.32,25.86 157.16,24.94 L156.34,24.32 C155.58,25.16 154.64,25.9 153.54,26.54 C153.36,26.3 153.2,26.02 153.06,25.72 C152.8,25.2 152.56,24.56 152.36,23.78 L158.14,23.26 L158,22.28 Z M161.54,21.58 L161.54,22.62 L169.48,22.62 L169.48,24.6 L163.26,24.6 L163.26,32.32 L169.26,32.32 C169.04,33.52 168.64,34.5 168.08,35.28 C166.84,34.64 165.74,33.9 164.74,33.04 L163.88,33.64 C164.92,34.54 166.08,35.34 167.34,36.02 C166.06,37.02 163.94,37.66 160.96,37.94 L161.44,38.92 C164.68,38.54 167,37.74 168.36,36.54 C171.32,37.94 174.84,38.72 178.92,38.9 L179.22,37.86 C175.28,37.7 171.9,37 169.06,35.74 C169.66,34.9 170.1,33.76 170.34,32.32 L176.8,32.32 L176.8,24.6 L170.56,24.6 L170.56,22.62 L178.48,22.62 L178.48,21.58 L161.54,21.58 Z M175.74,31.34 L170.48,31.34 C170.52,30.86 170.54,30.34 170.56,29.78 L170.56,28.9 L175.74,28.9 L175.74,31.34 Z M169.38,31.34 L164.34,31.34 L164.34,28.9 L169.48,28.9 L169.48,29.78 C169.46,30.3 169.42,30.82 169.38,31.34 L169.38,31.34 Z M164.34,27.96 L164.34,25.58 L169.48,25.58 L169.48,27.96 L164.34,27.96 Z M170.56,25.58 L175.74,25.58 L175.74,27.96 L170.56,27.96 L170.56,25.58 Z M190.08,20.7 C188.3,22.66 185.62,23.98 182.04,24.7 L182.68,25.66 C184.82,25.2 186.66,24.5 188.22,23.56 L194.4,23.56 C193.22,25.36 191.52,26.72 189.3,27.64 C188.62,26.8 187.9,26.04 187.12,25.32 L186.18,25.78 C186.92,26.42 187.62,27.16 188.28,28 C186.8,28.48 185.1,28.78 183.18,28.9 L183.64,29.9 C189.48,29.44 193.5,27.28 195.66,23.44 L195.66,22.56 L189.64,22.56 C190.14,22.16 190.6,21.7 191.04,21.2 L190.08,20.7 Z M188.98,33.16 L188.02,33.64 C188.78,34.4 189.54,35.28 190.28,36.26 C187.96,37.08 185.2,37.5 181.98,37.54 L182.42,38.6 C190.14,38.44 195.42,35.98 198.24,31.22 L198.24,30.36 L192.4,30.36 C193.1,29.88 193.72,29.34 194.28,28.74 L193.36,28.24 C191.24,30.48 188.02,31.84 183.66,32.28 L184.3,33.24 C186.76,32.84 188.88,32.22 190.68,31.36 L196.86,31.36 C195.54,33.34 193.7,34.84 191.3,35.86 C190.58,34.9 189.8,34 188.98,33.16 L188.98,33.16 Z" id="晓多·知晓更多" fill="#FFFFFF" sketch:type="MSShapeGroup"></path>
            </g>
        </g>
    </g>
</svg>