<?xml version="1.0" encoding="UTF-8" standalone="no"?>
<svg width="96px" height="96px" viewBox="0 0 96 96" version="1.1" xmlns="http://www.w3.org/2000/svg" xmlns:xlink="http://www.w3.org/1999/xlink">
    <!-- Generator: sketchtool 3.6.1 (26313) - http://www.bohemiancoding.com/sketch -->
    <title>Group 2</title>
    <desc>Created with sketchtool.</desc>
    <defs></defs>
    <g id="Desktop-HD" stroke="none" stroke-width="1" fill="none" fill-rule="evenodd">
        <g id="官网-MS-子页面" transform="translate(-282.000000, -938.000000)">
            <g id="Group-2" transform="translate(282.000000, 938.000000)">
                <rect id="Rectangle-211" x="0" y="0" width="96" height="96"></rect>
                <g id="make_decision" transform="translate(12.000000, 8.000000)">
                    <g id="Group" fill="#FFCC80">
                        <circle id="Oval" cx="64" cy="44" r="8"></circle>
                        <circle id="Oval" cx="8" cy="44" r="8"></circle>
                        <path d="M66,30 C66,4.6 6,13.4 6,30 L6,50 C6,66.6 19.4,80 36,80 C52.6,80 66,66.6 66,50 L66,30 L66,30 Z" id="Shape"></path>
                        <path d="M36,0 C18.4,0 4,14.4 4,32 L4,39 L8.2,40.2 L8.2,30 L47.2,17.4 L63.6,30 L63.6,40.2 L67.8,39 L67.8,32 C68,17 57.2,0 36,0 L36,0 Z" id="Shape"></path>
                    </g>
                    <path d="M36.03125,52.03125 L36.03125,46.03125 L44,54 L36.03125,62.0625 L36.03125,56.0625 C31.6562281,56.0625 27.8906408,54.4843908 24.734375,51.328125 C21.5781092,48.1718592 20,44.4062719 20,40.03125 C20,36.9062344 20.8437416,34.0625128 22.53125,31.5 L25.4375,34.40625 C24.4999953,36.0937584 24.03125,37.9687397 24.03125,40.03125 C24.03125,43.3437666 25.2031133,46.1718633 27.546875,48.515625 C29.8906367,50.8593867 32.7187334,52.03125 36.03125,52.03125 L36.03125,52.03125 Z M36.03125,24 C40.4062719,24 44.1718592,25.5781092 47.328125,28.734375 C50.4843908,31.8906408 52.0625,35.6562281 52.0625,40.03125 C52.0625,43.1562656 51.2187584,45.9999872 49.53125,48.5625 L46.625,45.65625 C47.5625047,43.9687416 48.03125,42.0937603 48.03125,40.03125 C48.03125,36.7187334 46.8593867,33.8906367 44.515625,31.546875 C42.1718633,29.2031133 39.3437666,28.03125 36.03125,28.03125 L36.03125,34.03125 L28.0625,26.0625 L36.03125,18 L36.03125,24 Z" id="sync---MaterialIcons-Regular" fill="#FF5722"></path>
                </g>
            </g>
        </g>
    </g>
</svg>