<?xml version="1.0" encoding="UTF-8" standalone="no"?>
<svg width="96px" height="96px" viewBox="0 0 96 96" version="1.1" xmlns="http://www.w3.org/2000/svg" xmlns:xlink="http://www.w3.org/1999/xlink">
    <!-- Generator: sketchtool 3.6.1 (26313) - http://www.bohemiancoding.com/sketch -->
    <title>Group 3</title>
    <desc>Created with sketchtool.</desc>
    <defs></defs>
    <g id="Desktop-HD" stroke="none" stroke-width="1" fill="none" fill-rule="evenodd">
        <g id="官网-MS-子页面" transform="translate(-1080.000000, -938.000000)">
            <g id="Group-3" transform="translate(1080.000000, 938.000000)">
                <rect id="Rectangle-211" x="0" y="0" width="96" height="96"></rect>
                <g id="contacts" transform="translate(12.000000, 8.000000)">
                    <path d="M64,80 L12,80 L12,0 L64,0 C68.4,0 72,3.6 72,8 L72,72 C72,76.4 68.4,80 64,80 L64,80 Z" id="Shape" fill="#FF7043"></path>
                    <path d="M8,0 L12,0 L12,80 L8,80 C3.6,80 0,76.4 0,72 L0,8 C0,3.6 3.6,0 8,0 L8,0 Z" id="Shape" fill="#BF360C"></path>
                    <g id="Group" transform="translate(26.000000, 24.000000)" fill="#AB300B">
                        <ellipse id="Oval" cx="14" cy="8" rx="8" ry="8"></ellipse>
                        <path d="M28,28 C28,28 24.2,20 14,20 C3.8,20 0,28 0,28 L0,32 L28,32 L28,28 L28,28 Z" id="Shape"></path>
                    </g>
                </g>
            </g>
        </g>
    </g>
</svg>